<svg xmlns="http://www.w3.org/2000/svg" xmlns:xlink="http://www.w3.org/1999/xlink" viewBox="0 0 101 101"><defs><style>.cls-1{fill:url(#Безымянный_градиент_14);}.cls-2{fill:#fff;}</style><linearGradient id="Безымянный_градиент_14" y1="50.5" x2="101" y2="50.5" gradientUnits="userSpaceOnUse"><stop offset="0" stop-color="#3e30ff"/><stop offset="0.06" stop-color="#3e30ff"/><stop offset="1" stop-color="#4d78ff"/></linearGradient></defs><title>1.1_1</title><g id="Layer_2" data-name="Layer 2"><g id="Слой_1" data-name="Слой 1"><g id="_1.1" data-name="1.1"><circle class="cls-1" cx="50.5" cy="50.5" r="50.5"/><path class="cls-2" d="M19.41,57.72h-1.6V52.28H17l-4.22,5.44H11l4.67-6.18-4.27-5h1.82L17,50.82h.83v-4.3h1.6v4.3h.83l3.81-4.3h1.83l-4.28,5,4.68,6.18H24.44l-4.23-5.44h-.8Z"/><path class="cls-2" d="M33,49.72h1.82v8H33.36V51.43l-4,6.29H27.54v-8H29V56Z"/><path class="cls-2" d="M43.84,54.13a2.24,2.24,0,0,1-1.79,3.59H37v-8h4.54a2,2,0,0,1,2,2,1.83,1.83,0,0,1-.86,1.61A2.16,2.16,0,0,1,43.84,54.13Zm-5.39-3.39V53H41a1.07,1.07,0,0,0,.8-.34,1.12,1.12,0,0,0,0-1.61,1.07,1.07,0,0,0-.8-.34Zm3,5.87a1.31,1.31,0,0,0,1-.4,1.26,1.26,0,0,0,.39-.94,1.35,1.35,0,0,0-1.35-1.36h-3v2.7Z"/><path class="cls-2" d="M52.79,50.74a4.28,4.28,0,0,1,0,5.94,4.28,4.28,0,0,1-3.14,1.2,4.12,4.12,0,0,1-3-1.2,4.25,4.25,0,0,1,0-5.92,4.12,4.12,0,0,1,3-1.2A4.31,4.31,0,0,1,52.79,50.74Zm-1.06,5a2.76,2.76,0,0,0,.8-2,2.86,2.86,0,0,0-.8-2,2.76,2.76,0,0,0-2-.81,2.75,2.75,0,0,0-2.85,2.85,2.78,2.78,0,0,0,2.85,2.84A2.7,2.7,0,0,0,51.73,55.73Z"/><path class="cls-2" d="M54.52,49.72H62l-.53,1.45H58.9v6.55H57.44V51.17H54.52Z"/><path class="cls-2" d="M69,52.74v-3H70.4v8H69V54.07H64.58v3.65H63.12v-8h1.46v3Z"/><path class="cls-2" d="M76.72,52.26a2.73,2.73,0,1,1,0,5.46H72.58v-8H74v2.54Zm-.3,4.21a1.57,1.57,0,0,0,1.07-.39A1.33,1.33,0,0,0,78,55a1.36,1.36,0,0,0-.51-1.1,1.6,1.6,0,0,0-1.07-.37H74v3Zm4.21,1.25v-8h1.45v8Z"/><path class="cls-2" d="M91,50.76a4,4,0,0,1,1.2,3,2.55,2.55,0,0,1,0,.44h-7A2.77,2.77,0,0,0,86.1,56a3.18,3.18,0,0,0,2.19.72,4.18,4.18,0,0,0,2.53-.79l.4,1.09a5.06,5.06,0,0,1-3,.87,4.5,4.5,0,0,1-3.32-1.19,4.32,4.32,0,0,1,0-5.93,4.44,4.44,0,0,1,6.07,0Zm-.26,2.51a2.79,2.79,0,0,0-.88-1.83,2.88,2.88,0,0,0-3.81,0,2.84,2.84,0,0,0-.88,1.83Z"/></g></g></g></svg>