<svg xmlns="http://www.w3.org/2000/svg" xmlns:xlink="http://www.w3.org/1999/xlink" viewBox="0 0 101 101"><defs><style>.cls-1{fill:url(#Безымянный_градиент_14);}.cls-2{fill:#fff;}</style><linearGradient id="Безымянный_градиент_14" y1="50.5" x2="101" y2="50.5" gradientUnits="userSpaceOnUse"><stop offset="0" stop-color="#3e30ff"/><stop offset="0.06" stop-color="#3e30ff"/><stop offset="1" stop-color="#4d78ff"/></linearGradient></defs><title>10.1</title><g id="Layer_2" data-name="Layer 2"><g id="Слой_1" data-name="Слой 1"><g id="_10.1" data-name="10.1"><circle class="cls-1" cx="50.5" cy="50.5" r="50.5"/><path class="cls-2" d="M9.87,42.22a5.07,5.07,0,0,1,3.68-1.44,5.08,5.08,0,0,1,3.68,1.44,5.09,5.09,0,0,1,0,7.18,5.06,5.06,0,0,1-3.68,1.46A5,5,0,0,1,9.87,49.4a5.07,5.07,0,0,1,0-7.18Zm6.35,6.27a3.6,3.6,0,0,0,1.09-2.67,3.71,3.71,0,0,0-3.76-3.77,3.77,3.77,0,1,0,0,7.53A3.63,3.63,0,0,0,16.22,48.49Z"/><path class="cls-2" d="M19.57,43.72h6.52L25.63,45H23.4v5.73H22.13V45H19.57Z"/><path class="cls-2" d="M33.09,47.58a1.9,1.9,0,0,1,.39,1.18,1.88,1.88,0,0,1-.57,1.38,1.91,1.91,0,0,1-1.39.58H27.1v-7h4a1.74,1.74,0,0,1,1.77,1.77,1.62,1.62,0,0,1-.75,1.42A1.82,1.82,0,0,1,33.09,47.58Zm-4.72-3v2h2.22a.94.94,0,0,0,.7-.29,1,1,0,0,0,.29-.71,1,1,0,0,0-1-1ZM31,49.75a1.15,1.15,0,0,0,.84-.35,1.1,1.1,0,0,0,.34-.83,1.17,1.17,0,0,0-.34-.84,1.15,1.15,0,0,0-.84-.35H28.37v2.37Z"/><path class="cls-2" d="M40.81,44.63a3.48,3.48,0,0,1,1,2.59,3,3,0,0,1,0,.39H35.71a2.34,2.34,0,0,0,.78,1.59,2.81,2.81,0,0,0,1.92.63,3.65,3.65,0,0,0,2.21-.68l.35,1a4.46,4.46,0,0,1-2.6.76,4,4,0,0,1-2.91-1,3.78,3.78,0,0,1,0-5.19,3.88,3.88,0,0,1,5.31,0Zm-.23,2.19a2.41,2.41,0,0,0-.77-1.59,2.52,2.52,0,0,0-3.33,0,2.46,2.46,0,0,0-.77,1.59Z"/><path class="cls-2" d="M42.3,43.72h6.53L48.37,45H46.14v5.73H44.87V45H42.3Z"/><path class="cls-2" d="M50.17,49.81a3.72,3.72,0,0,1,0-5.18,3.69,3.69,0,0,1,2.7-1.05,4.1,4.1,0,0,1,2.12.56l-.38,1.06A3.07,3.07,0,0,0,53,44.72a2.51,2.51,0,0,0-1.85.72,2.39,2.39,0,0,0-.71,1.78A2.36,2.36,0,0,0,51.11,49a2.52,2.52,0,0,0,1.85.73,3,3,0,0,0,1.59-.44l.4,1.07a4.43,4.43,0,0,1-2.09.52A3.65,3.65,0,0,1,50.17,49.81Z"/><path class="cls-2" d="M55.44,43.72H62L61.5,45H59.27v5.73H58V45H55.44Z"/><path class="cls-2" d="M69,47.58a1.9,1.9,0,0,1,.39,1.18,1.88,1.88,0,0,1-.57,1.38,1.93,1.93,0,0,1-1.39.58H63v-7h4a1.76,1.76,0,0,1,1.78,1.77A1.61,1.61,0,0,1,68,46.91,1.81,1.81,0,0,1,69,47.58Zm-4.72-3v2h2.21a.93.93,0,0,0,.7-.29,1,1,0,0,0,.3-.71.92.92,0,0,0-.3-.7.94.94,0,0,0-.7-.3Zm2.66,5.14a1.18,1.18,0,0,0,1.18-1.18,1.21,1.21,0,0,0-.34-.84,1.15,1.15,0,0,0-.84-.35H64.24v2.37Z"/><path class="cls-2" d="M76.67,44.63a3.48,3.48,0,0,1,1,2.59c0,.11,0,.24,0,.39H71.58a2.34,2.34,0,0,0,.78,1.59,2.81,2.81,0,0,0,1.92.63,3.65,3.65,0,0,0,2.21-.68l.35,1a4.48,4.48,0,0,1-2.6.76,4,4,0,0,1-2.91-1,3.43,3.43,0,0,1-1-2.6,3.48,3.48,0,0,1,1.05-2.59,3.87,3.87,0,0,1,5.3,0Zm-.22,2.19a2.46,2.46,0,0,0-.77-1.59A2.38,2.38,0,0,0,74,44.6a2.35,2.35,0,0,0-1.66.63,2.41,2.41,0,0,0-.77,1.59Z"/><path class="cls-2" d="M84.28,46.36V43.72h1.27v7H84.28v-3.2H80.45v3.2H79.18v-7h1.27v2.64Z"/><path class="cls-2" d="M92.48,46.88H87.65V45.61h5.29Z"/><path class="cls-2" d="M38.05,63.16V60.52h1.27v7H38.05v-3.2H34.23v3.2H33v-7h1.28v2.64Z"/><path class="cls-2" d="M47.26,61.41a3.74,3.74,0,0,1,0,5.2,3.75,3.75,0,0,1-2.74,1,3.62,3.62,0,0,1-2.68-1,3.72,3.72,0,0,1,0-5.18,3.62,3.62,0,0,1,2.68-1A3.77,3.77,0,0,1,47.26,61.41Zm-.92,4.37A2.45,2.45,0,0,0,47,64a2.49,2.49,0,0,0-.7-1.78,2.5,2.5,0,1,0,0,3.54Z"/><path class="cls-2" d="M50.39,66.61a3.75,3.75,0,0,1,0-5.18,3.71,3.71,0,0,1,2.71-1,4.07,4.07,0,0,1,2.11.56L54.83,62a3,3,0,0,0-1.65-.48,2.53,2.53,0,0,0-1.85.72A2.43,2.43,0,0,0,50.62,64a2.4,2.4,0,0,0,.71,1.76,2.53,2.53,0,0,0,1.85.73,3.08,3.08,0,0,0,1.6-.44l.39,1.07a4.4,4.4,0,0,1-2.09.52A3.66,3.66,0,0,1,50.39,66.61Z"/><path class="cls-2" d="M55.66,60.52h6.52l-.46,1.27H59.5v5.73H58.22V61.79H55.66Z"/><path class="cls-2" d="M66.82,62.74a2.32,2.32,0,0,1,2.39,2.38,2.33,2.33,0,0,1-2.39,2.4H63.19v-7h1.27v2.22Zm-.27,3.68a1.42,1.42,0,0,0,.94-.33,1.26,1.26,0,0,0,0-1.93,1.4,1.4,0,0,0-.94-.34H64.46v2.6Z"/></g></g></g></svg>