<svg xmlns="http://www.w3.org/2000/svg" xmlns:xlink="http://www.w3.org/1999/xlink" viewBox="0 0 101 101"><defs><style>.cls-1{fill:url(#Безымянный_градиент_14);}.cls-2{fill:#fff;}</style><linearGradient id="Безымянный_градиент_14" y1="50.5" x2="101" y2="50.5" gradientUnits="userSpaceOnUse"><stop offset="0" stop-color="#3e30ff"/><stop offset="0.06" stop-color="#3e30ff"/><stop offset="1" stop-color="#4d78ff"/></linearGradient></defs><title>11.1</title><g id="Layer_2" data-name="Layer 2"><g id="Слой_1" data-name="Слой 1"><g id="_11.1" data-name="11.1"><circle class="cls-1" cx="50.5" cy="50.5" r="50.5"/><path class="cls-2" d="M30.34,59.72v2.8h-2V57.9h1.28l4.44-12.18h7.2V57.9h1.6v4.62h-2v-2.8Zm5-12.08L31.62,57.9h7.64V47.64Z"/><path class="cls-2" d="M52.26,56.42l4.5-10.7h2.82v14h-2V48.28L52.82,59.72h-1.1L47,48.28V59.72H45v-14h2.82Z"/><path class="cls-2" d="M73.1,59a7.77,7.77,0,0,1-3.7.92,7.22,7.22,0,0,1-5.26-2.08,7.27,7.27,0,0,1,0-10.26,7.21,7.21,0,0,1,5.26-2.06,7.66,7.66,0,0,1,3.7.92l-.6,1.68a6.51,6.51,0,0,0-3.1-.78A5.29,5.29,0,0,0,64,52.72,5.33,5.33,0,0,0,69.4,58.1a6.51,6.51,0,0,0,3.1-.78Z"/></g></g></g></svg>