<svg xmlns="http://www.w3.org/2000/svg" xmlns:xlink="http://www.w3.org/1999/xlink" viewBox="0 0 101 101"><defs><style>.cls-1{fill:url(#Безымянный_градиент_14);}.cls-2{fill:#fff;}</style><linearGradient id="Безымянный_градиент_14" y1="50.5" x2="101" y2="50.5" gradientUnits="userSpaceOnUse"><stop offset="0" stop-color="#3e30ff"/><stop offset="0.06" stop-color="#3e30ff"/><stop offset="1" stop-color="#4d78ff"/></linearGradient></defs><title>12.1</title><g id="Layer_2" data-name="Layer 2"><g id="Слой_1" data-name="Слой 1"><g id="_12.1" data-name="12.1"><circle class="cls-1" cx="50.5" cy="50.5" r="50.5"/><path class="cls-2" d="M42,49.72H40.4V40.5l-5.31,9.22H32.84V38.52h1.6v9.21l5.31-9.21H42Z"/><path class="cls-2" d="M44.34,49.72v-8H46.1l2.69,6,2.67-6h1.76v8H51.76V43.86l-2.62,5.86h-.72l-2.63-5.86v5.86Z"/><path class="cls-2" d="M58.5,50l-3.62-8.3H56.4l2.93,6.41,2.91-6.41h1.52l-3.85,8.76a7.26,7.26,0,0,1-1.3,2.23,3.23,3.23,0,0,1-2.45,1,3.89,3.89,0,0,1-1.61-.37L55,52.1a2.07,2.07,0,0,0,1,.3,1.91,1.91,0,0,0,1.51-.67A3.59,3.59,0,0,0,58,51l.21-.38.17-.38Z"/><path class="cls-2" d="M70.47,45.33H65V43.88h6Z"/><path class="cls-2" d="M35.61,60.92V67.6h1.28v3.56H35.44V68.92H23.71v-8h1.45V67.6h3.76V60.92H30.4V67.6h3.76V60.92Z"/><path class="cls-2" d="M45.18,62a4,4,0,0,1,1.2,3,3.89,3.89,0,0,1,0,.44h-7a2.72,2.72,0,0,0,.89,1.83,3.19,3.19,0,0,0,2.19.72A4.16,4.16,0,0,0,45,67.12l.4,1.09a5.06,5.06,0,0,1-3,.87,4.53,4.53,0,0,1-3.32-1.19,3.94,3.94,0,0,1-1.15-3,4,4,0,0,1,1.2-3,4.43,4.43,0,0,1,6.06,0Zm-.26,2.51A2.79,2.79,0,0,0,44,62.64a2.87,2.87,0,0,0-3.8,0,2.75,2.75,0,0,0-.88,1.83Z"/><path class="cls-2" d="M48.75,67.88a4.25,4.25,0,0,1,0-5.92,4.21,4.21,0,0,1,3.08-1.2,4.68,4.68,0,0,1,2.42.64l-.43,1.21a3.57,3.57,0,0,0-1.89-.54,2.9,2.9,0,0,0-2.11.81,2.81,2.81,0,0,0-.82,2,2.71,2.71,0,0,0,.82,2,2.83,2.83,0,0,0,2.11.83,3.48,3.48,0,0,0,1.82-.49l.45,1.21a4.89,4.89,0,0,1-2.38.6A4.15,4.15,0,0,1,48.75,67.88Z"/><path class="cls-2" d="M54.76,60.92h7.46l-.53,1.45H59.15v6.55H57.69V62.37H54.76Z"/><path class="cls-2" d="M70.22,65.33A2.23,2.23,0,0,1,70,68.26a2.15,2.15,0,0,1-1.58.66H63.37v-8h4.55a2,2,0,0,1,2,2,1.82,1.82,0,0,1-.87,1.61A2.18,2.18,0,0,1,70.22,65.33Zm-5.39-3.39v2.29h2.53a1.15,1.15,0,0,0,0-2.29Zm3,5.87a1.31,1.31,0,0,0,1-.4,1.29,1.29,0,0,0,.38-.94,1.34,1.34,0,0,0-.38-1,1.31,1.31,0,0,0-1-.4h-3v2.7Z"/><path class="cls-2" d="M79.16,61.94a4.28,4.28,0,0,1,0,5.94A4.26,4.26,0,0,1,76,69.08,4.14,4.14,0,0,1,73,67.88,4.25,4.25,0,0,1,73,62,4.14,4.14,0,0,1,76,60.76,4.29,4.29,0,0,1,79.16,61.94Zm-1,5a2.76,2.76,0,0,0,.8-2,2.86,2.86,0,0,0-.8-2,2.8,2.8,0,0,0-2-.81,2.75,2.75,0,0,0-2.84,2.85,2.78,2.78,0,0,0,2.84,2.84A2.74,2.74,0,0,0,78.11,66.93Z"/></g></g></g></svg>