<svg xmlns="http://www.w3.org/2000/svg" xmlns:xlink="http://www.w3.org/1999/xlink" viewBox="0 0 101 101"><defs><style>.cls-1{fill:url(#Безымянный_градиент_14);}.cls-2{fill:#fff;}</style><linearGradient id="Безымянный_градиент_14" y1="50.5" x2="101" y2="50.5" gradientUnits="userSpaceOnUse"><stop offset="0" stop-color="#3e30ff"/><stop offset="0.06" stop-color="#3e30ff"/><stop offset="1" stop-color="#4d78ff"/></linearGradient></defs><title>13.1</title><g id="Layer_2" data-name="Layer 2"><g id="Слой_1" data-name="Слой 1"><g id="_13.1" data-name="13.1"><circle class="cls-1" cx="50.5" cy="50.5" r="50.5"/><path class="cls-2" d="M31.66,43.82v-4.3h1.6v11.2h-1.6V45.28H25.84v5.44h-1.6V39.52h1.6v4.3Z"/><path class="cls-2" d="M42.36,43.76a4,4,0,0,1,1.2,3,3.89,3.89,0,0,1,0,.44h-7a2.68,2.68,0,0,0,.9,1.83,3.18,3.18,0,0,0,2.19.72,4.13,4.13,0,0,0,2.52-.79l.4,1.09a5.05,5.05,0,0,1-3,.87,4.54,4.54,0,0,1-3.33-1.19,4.33,4.33,0,0,1,0-5.93,4.43,4.43,0,0,1,6.06,0Zm-.25,2.51a2.84,2.84,0,0,0-.88-1.83,2.88,2.88,0,0,0-3.81,0,2.79,2.79,0,0,0-.88,1.83Z"/><path class="cls-2" d="M45.53,50.72V53H44.08V49.39h.7l2.43-6.67h5.28v6.67h1V53H52V50.72ZM48.27,44l-2,5.36H51V44Z"/><path class="cls-2" d="M61.82,47.13a2.23,2.23,0,0,1-.21,2.93,2.15,2.15,0,0,1-1.58.66H55v-8h4.54a2,2,0,0,1,2,2,1.82,1.82,0,0,1-.87,1.61A2.18,2.18,0,0,1,61.82,47.13Zm-5.39-3.39V46H59a1.06,1.06,0,0,0,.79-.34,1.12,1.12,0,0,0,0-1.61,1.06,1.06,0,0,0-.79-.34Zm3,5.87a1.31,1.31,0,0,0,1-.4,1.29,1.29,0,0,0,.38-.94,1.34,1.34,0,0,0-.38-1,1.31,1.31,0,0,0-1-.4h-3v2.7Z"/><path class="cls-2" d="M69.32,42.72h1.83v8H69.69V44.43l-4,6.29H63.87v-8h1.45V49Z"/><path class="cls-2" d="M79.07,46.33H73.55V44.88h6Z"/><path class="cls-2" d="M26.36,66.25h-.85v3.67H24.05V66.25H23.2l-2.67,3.67H19l3.1-4.32-2.94-3.68h1.58l2.48,3h.88v-3h1.46v3h.89l2.48-3h1.57L27.52,65.6l3.09,4.32H29Z"/><path class="cls-2" d="M37.43,61.92h1.82v8H37.79V63.63l-4,6.29H32v-8h1.46V68.2Z"/><path class="cls-2" d="M41.43,69.92v-8h1.76l2.69,6,2.67-6h1.76v8H48.85V64.06l-2.62,5.86h-.72l-2.63-5.86v5.86Z"/><path class="cls-2" d="M59.38,62.94a4.28,4.28,0,0,1,0,5.94,4.28,4.28,0,0,1-3.14,1.2,4.14,4.14,0,0,1-3.05-1.2,4.25,4.25,0,0,1,0-5.92,4.14,4.14,0,0,1,3.05-1.2A4.31,4.31,0,0,1,59.38,62.94Zm-1.06,5a2.72,2.72,0,0,0,.8-2,2.82,2.82,0,0,0-.8-2,2.76,2.76,0,0,0-2-.81,2.75,2.75,0,0,0-2.85,2.85,2.78,2.78,0,0,0,2.85,2.84A2.7,2.7,0,0,0,58.32,67.93Z"/><path class="cls-2" d="M63,68.88A4.25,4.25,0,0,1,63,63a4.21,4.21,0,0,1,3.09-1.2,4.71,4.71,0,0,1,2.42.64L68,63.61a3.57,3.57,0,0,0-1.89-.54,2.88,2.88,0,0,0-2.11.81,2.77,2.77,0,0,0-.82,2,2.67,2.67,0,0,0,.82,2,2.82,2.82,0,0,0,2.11.83A3.48,3.48,0,0,0,68,68.27l.45,1.21a4.92,4.92,0,0,1-2.38.6A4.17,4.17,0,0,1,63,68.88Z"/><path class="cls-2" d="M69,61.92h7.45l-.52,1.45H73.36v6.55H71.91V63.37H69Z"/><path class="cls-2" d="M81.73,64.46a2.65,2.65,0,0,1,2.74,2.72,2.67,2.67,0,0,1-2.74,2.74H77.59v-8H79v2.54Zm-.3,4.21a1.59,1.59,0,0,0,1.07-.39,1.33,1.33,0,0,0,.51-1.1,1.36,1.36,0,0,0-.51-1.1,1.62,1.62,0,0,0-1.07-.39H79v3Z"/></g></g></g></svg>