<svg xmlns="http://www.w3.org/2000/svg" xmlns:xlink="http://www.w3.org/1999/xlink" viewBox="0 0 101 101"><defs><style>.cls-1{fill:url(#Безымянный_градиент_14);}.cls-2{fill:#fff;}</style><linearGradient id="Безымянный_градиент_14" y1="50.5" x2="101" y2="50.5" gradientUnits="userSpaceOnUse"><stop offset="0" stop-color="#3e30ff"/><stop offset="0.06" stop-color="#3e30ff"/><stop offset="1" stop-color="#4d78ff"/></linearGradient></defs><title>2.1</title><g id="Layer_2" data-name="Layer 2"><g id="Слой_1" data-name="Слой 1"><g id="_2.1" data-name="2.1"><circle class="cls-1" cx="50.5" cy="50.5" r="50.5"/><path class="cls-2" d="M25.39,50.72V41h-6v9.75h-1.6V39.52H27v11.2Z"/><path class="cls-2" d="M32.43,51l-3.62-8.3h1.52l2.93,6.41,2.91-6.41h1.52l-3.85,8.76a7.26,7.26,0,0,1-1.3,2.23,3.25,3.25,0,0,1-2.45,1,3.89,3.89,0,0,1-1.61-.37l.44-1.25a2.12,2.12,0,0,0,1,.3,1.92,1.92,0,0,0,1.52-.67A3.59,3.59,0,0,0,32,52l.21-.38.17-.38Z"/><path class="cls-2" d="M38.14,42.72H45.6l-.53,1.45H42.52v6.55H41.07V44.17H38.14Z"/><path class="cls-2" d="M53.2,43.76a4,4,0,0,1,1.2,3,4.2,4.2,0,0,1,0,.44h-7a2.77,2.77,0,0,0,.9,1.83,3.18,3.18,0,0,0,2.19.72A4.18,4.18,0,0,0,53,48.92l.4,1.09a5.08,5.08,0,0,1-3,.87,4.54,4.54,0,0,1-3.33-1.19,4.33,4.33,0,0,1,.05-5.93,4.44,4.44,0,0,1,6.07,0Zm-.26,2.51a2.84,2.84,0,0,0-.88-1.83,2.88,2.88,0,0,0-3.81,0,2.84,2.84,0,0,0-.88,1.83Z"/><path class="cls-2" d="M66.51,49.4V42.72H68v8H56.06v-8h1.46V49.4h3.76V42.72h1.47V49.4Z"/><path class="cls-2" d="M76.91,43.76a4,4,0,0,1,1.2,3,2.55,2.55,0,0,1,0,.44h-7A2.77,2.77,0,0,0,72,49a3.18,3.18,0,0,0,2.19.72,4.18,4.18,0,0,0,2.53-.79L77.1,50a5.08,5.08,0,0,1-3,.87,4.54,4.54,0,0,1-3.33-1.19,4.33,4.33,0,0,1,0-5.93,4.44,4.44,0,0,1,6.07,0Zm-.26,2.51a2.79,2.79,0,0,0-.88-1.83,2.88,2.88,0,0,0-3.81,0,2.84,2.84,0,0,0-.88,1.83Z"/><path class="cls-2" d="M85.51,46.33H80V44.88H86Z"/><path class="cls-2" d="M32.33,68.88a4.25,4.25,0,0,1,0-5.92,4.21,4.21,0,0,1,3.09-1.2,4.74,4.74,0,0,1,2.42.64l-.44,1.21a3.51,3.51,0,0,0-1.88-.54,2.92,2.92,0,0,0-2.12.81,2.8,2.8,0,0,0-.81,2,2.7,2.7,0,0,0,.81,2,2.86,2.86,0,0,0,2.12.83,3.5,3.5,0,0,0,1.82-.49l.45,1.21a4.93,4.93,0,0,1-2.39.6A4.17,4.17,0,0,1,32.33,68.88Z"/><path class="cls-2" d="M38.35,61.92H45.8l-.52,1.45H42.73v6.55H41.28V63.37H38.35Z"/><path class="cls-2" d="M53.8,66.33A2.24,2.24,0,0,1,52,69.92H47v-8H51.5a2,2,0,0,1,2,2,1.83,1.83,0,0,1-.86,1.61A2.16,2.16,0,0,1,53.8,66.33Zm-5.39-3.39v2.29h2.53a1.07,1.07,0,0,0,.8-.34,1.12,1.12,0,0,0,0-1.61,1.07,1.07,0,0,0-.8-.34Zm3,5.87a1.31,1.31,0,0,0,1-.4,1.26,1.26,0,0,0,.39-.94,1.35,1.35,0,0,0-1.35-1.36h-3v2.7Z"/><path class="cls-2" d="M61.31,61.92h1.82v8H61.68V63.63l-4,6.29H55.85v-8h1.46V68.2Z"/><path class="cls-2" d="M66.49,67a2.37,2.37,0,0,1-1.6-2.43,2.58,2.58,0,0,1,.77-1.92,2.73,2.73,0,0,1,2-.73H72v8H70.49V67.23H67.85L66.3,69.92H64.81Zm4-.88v-3H67.93a1.67,1.67,0,0,0-1.07.38,1.42,1.42,0,0,0-.5,1.11,1.38,1.38,0,0,0,.5,1.1,1.61,1.61,0,0,0,1.07.38Z"/></g></g></g></svg>