<svg xmlns="http://www.w3.org/2000/svg" xmlns:xlink="http://www.w3.org/1999/xlink" viewBox="0 0 101 101"><defs><style>.cls-1{fill:url(#Безымянный_градиент_14);}.cls-2{fill:#fff;}</style><linearGradient id="Безымянный_градиент_14" y1="50.5" x2="101" y2="50.5" gradientUnits="userSpaceOnUse"><stop offset="0" stop-color="#3e30ff"/><stop offset="0.06" stop-color="#3e30ff"/><stop offset="1" stop-color="#4d78ff"/></linearGradient></defs><title>2.4</title><g id="Layer_2" data-name="Layer 2"><g id="Слой_1" data-name="Слой 1"><g id="_3.1" data-name="3.1"><circle class="cls-1" cx="50.5" cy="50.5" r="50.5"/><path class="cls-2" d="M26.15,57.72l-5.24-6.8h-1v6.8h-2v-14h2V49.1h1l4.8-5.38H28l-5.36,6.2,5.86,7.8Z"/><path class="cls-2" d="M39.45,49a5.83,5.83,0,0,1,0,7.44,4.66,4.66,0,0,1-3.58,1.48,4.33,4.33,0,0,1-4.14-2.82v7.42H29.91V47.72h1.82v2.62a4.3,4.3,0,0,1,1.58-2,4.36,4.36,0,0,1,2.56-.78A4.63,4.63,0,0,1,39.45,49Zm-1.52,6.3a3.77,3.77,0,0,0,0-5.16,3.5,3.5,0,0,0-2.58-1,3.59,3.59,0,0,0-3.62,3.6,3.59,3.59,0,0,0,3.62,3.64A3.54,3.54,0,0,0,37.93,55.3Z"/><path class="cls-2" d="M51.33,49a5,5,0,0,1,1.5,3.7c0,.16,0,.34,0,.56H44.05a3.37,3.37,0,0,0,1.12,2.28,4,4,0,0,0,2.74.9,5.29,5.29,0,0,0,3.16-1l.5,1.36a6.37,6.37,0,0,1-3.72,1.08,5.68,5.68,0,0,1-4.16-1.48A5.42,5.42,0,0,1,43.75,49a5.54,5.54,0,0,1,7.58,0ZM51,52.16a3.53,3.53,0,0,0-1.1-2.28,3.41,3.41,0,0,0-2.38-.9,3.37,3.37,0,0,0-2.38.9,3.49,3.49,0,0,0-1.1,2.28Z"/><path class="cls-2" d="M55.29,57.72v2.8H53.47V56.06h.88l3-8.34H64v8.34h1.2v4.46H63.37v-2.8Zm3.42-8.36-2.44,6.7h5.9v-6.7Z"/><path class="cls-2" d="M73.91,47.72h2.28v10H74.37V49.86l-5,7.86H67.09v-10h1.82v7.86Z"/><path class="cls-2" d="M77.87,47.72h9.32l-.66,1.82H83.35v8.18H81.53V49.54H77.87Z"/></g></g></g></svg>