<svg xmlns="http://www.w3.org/2000/svg" xmlns:xlink="http://www.w3.org/1999/xlink" viewBox="0 0 101 101"><defs><style>.cls-1{fill:url(#Безымянный_градиент_14);}.cls-2{fill:#fff;}</style><linearGradient id="Безымянный_градиент_14" y1="50.5" x2="101" y2="50.5" gradientUnits="userSpaceOnUse"><stop offset="0" stop-color="#3e30ff"/><stop offset="0.06" stop-color="#3e30ff"/><stop offset="1" stop-color="#4d78ff"/></linearGradient></defs><title>4.1</title><g id="Layer_2" data-name="Layer 2"><g id="Слой_1" data-name="Слой 1"><g id="_4.1" data-name="4.1"><circle class="cls-1" cx="50.5" cy="50.5" r="50.5"/><path class="cls-2" d="M32.64,43.72h8.52l-.66,1.84H34.64V57.72h-2Z"/><path class="cls-2" d="M50.28,49a5.83,5.83,0,0,1,0,7.44,4.66,4.66,0,0,1-3.58,1.48,4.33,4.33,0,0,1-4.14-2.82v7.42H40.74V47.72h1.82v2.62a4.3,4.3,0,0,1,1.58-2,4.36,4.36,0,0,1,2.56-.78A4.63,4.63,0,0,1,50.28,49Zm-1.52,6.3a3.77,3.77,0,0,0,0-5.16,3.5,3.5,0,0,0-2.58-1,3.59,3.59,0,0,0-3.62,3.6,3.59,3.59,0,0,0,3.62,3.64A3.54,3.54,0,0,0,48.76,55.3Z"/><path class="cls-2" d="M57.18,58.1,52.66,47.72h1.9l3.66,8,3.64-8h1.9l-4.82,11a9.19,9.19,0,0,1-1.62,2.78,4,4,0,0,1-3.06,1.26,4.87,4.87,0,0,1-2-.46l.56-1.56a2.62,2.62,0,0,0,1.3.38,2.43,2.43,0,0,0,1.9-.84,5.13,5.13,0,0,0,.58-.86l.26-.48.22-.48Z"/><path class="cls-2" d="M71.92,54.9a2.63,2.63,0,0,1-1.12,2.18,4.69,4.69,0,0,1-2.88.84,7,7,0,0,1-3.58-.9l.5-1.38a4.57,4.57,0,0,0,2.8.9A3,3,0,0,0,69.46,56a1.52,1.52,0,0,0,.64-1.26c0-1.07-.76-1.6-2.26-1.6H66.76V52h1.06c1.38,0,2.08-.5,2.08-1.48a1.35,1.35,0,0,0-.6-1.14,2.72,2.72,0,0,0-1.66-.46,4.22,4.22,0,0,0-2.5.68l-.5-1.36a7.31,7.31,0,0,1,3.28-.68,4.54,4.54,0,0,1,2.74.76,2.45,2.45,0,0,1,1.06,2.06,2.15,2.15,0,0,1-1.78,2.2A2.28,2.28,0,0,1,71.92,54.9Z"/></g></g></g></svg>