<svg xmlns="http://www.w3.org/2000/svg" xmlns:xlink="http://www.w3.org/1999/xlink" viewBox="0 0 101 101"><defs><style>.cls-1{fill:url(#Безымянный_градиент_14);}.cls-2{fill:#fff;}</style><linearGradient id="Безымянный_градиент_14" y1="50.5" x2="101" y2="50.5" gradientUnits="userSpaceOnUse"><stop offset="0" stop-color="#3e30ff"/><stop offset="0.06" stop-color="#3e30ff"/><stop offset="1" stop-color="#4d78ff"/></linearGradient></defs><title>5.1</title><g id="Layer_2" data-name="Layer 2"><g id="Слой_1" data-name="Слой 1"><g id="_5.1" data-name="5.1"><circle class="cls-1" cx="50.5" cy="50.5" r="50.5"/><path class="cls-2" d="M31.06,49.72l-4.19-5.44H26v5.44h-1.6V38.52H26v4.3h.8l3.84-4.3H32.5l-4.29,5,4.69,6.24Z"/><path class="cls-2" d="M39.46,41.72h1.82v8H39.83V43.43l-4,6.29H34v-8h1.46V48Z"/><path class="cls-2" d="M50.31,43.17a3.67,3.67,0,0,1,1.07,2.71,3.77,3.77,0,0,1-1.2,2.83,4.11,4.11,0,0,1-3,1.17,4,4,0,0,1-3.09-1.32A4.49,4.49,0,0,1,43,45.4a12.18,12.18,0,0,1,.28-3A4.28,4.28,0,0,1,45,39.91a8,8,0,0,1,3.11-1.06,5.05,5.05,0,0,0,2.3-1l.45,1.23a4.34,4.34,0,0,1-2.29,1l-.37.05-.37.07-.67.12a3.9,3.9,0,0,0-1.33.68,4.32,4.32,0,0,0-1.27,3.31,3,3,0,0,1,1.16-1.55,3.5,3.5,0,0,1,2-.6A3.6,3.6,0,0,1,50.31,43.17Zm-1.19,4.64a2.46,2.46,0,0,0,.8-1.87,2.42,2.42,0,0,0-.8-1.86,2.63,2.63,0,0,0-1.9-.75,2.67,2.67,0,0,0-1.86.72,2.48,2.48,0,0,0-.83,1.78,2.84,2.84,0,0,0,.8,2,2.53,2.53,0,0,0,1.89.75A2.63,2.63,0,0,0,49.12,47.81Z"/><path class="cls-2" d="M59.83,42.76a4,4,0,0,1,1.2,3,2.55,2.55,0,0,1,0,.44H54A2.77,2.77,0,0,0,54.9,48a3.18,3.18,0,0,0,2.19.72,4.18,4.18,0,0,0,2.53-.79L60,49a5.08,5.08,0,0,1-3,.87,4.54,4.54,0,0,1-3.33-1.19,4.33,4.33,0,0,1,0-5.93,4.44,4.44,0,0,1,6.07,0Zm-.26,2.51a2.79,2.79,0,0,0-.88-1.83,2.88,2.88,0,0,0-3.81,0A2.84,2.84,0,0,0,54,45.27Z"/><path class="cls-2" d="M70.39,42.74a4.67,4.67,0,0,1,0,5.95,3.72,3.72,0,0,1-2.87,1.19,3.48,3.48,0,0,1-2-.63,3.54,3.54,0,0,1-1.26-1.63v5.94H62.75V41.72h1.46v2.09a3.54,3.54,0,0,1,1.26-1.63,3.47,3.47,0,0,1,2-.62A3.71,3.71,0,0,1,70.39,42.74Zm-1.22,5a3,3,0,0,0,0-4.13,3,3,0,0,0-4.13,0,2.77,2.77,0,0,0-.83,2,2.92,2.92,0,0,0,5,2.08Z"/><path class="cls-2" d="M78.87,45.33H73.35V43.88h6Z"/><path class="cls-2" d="M38.12,61.94a4.64,4.64,0,0,1,0,6,3.7,3.7,0,0,1-2.86,1.19A3.48,3.48,0,0,1,32,66.82v5.94H30.49V60.92H32V63a3.52,3.52,0,0,1,1.26-1.63,3.47,3.47,0,0,1,2-.62A3.69,3.69,0,0,1,38.12,61.94Zm-1.21,5a2.9,2.9,0,0,0-2.07-5,2.9,2.9,0,1,0,0,5.79A2.8,2.8,0,0,0,36.91,67Z"/><path class="cls-2" d="M46.32,60.92h1.82v8H46.68V62.63l-4,6.29H40.86v-8h1.46V67.2Z"/><path class="cls-2" d="M51,67.88A4.25,4.25,0,0,1,51,62a4.21,4.21,0,0,1,3.09-1.2,4.67,4.67,0,0,1,2.41.64l-.43,1.21a3.54,3.54,0,0,0-1.89-.54,2.91,2.91,0,0,0-2.11.81,2.81,2.81,0,0,0-.82,2,2.71,2.71,0,0,0,.82,2,2.85,2.85,0,0,0,2.11.83A3.54,3.54,0,0,0,56,67.27l.45,1.21a5,5,0,0,1-2.39.6A4.15,4.15,0,0,1,51,67.88Z"/><path class="cls-2" d="M59.32,65.22v3.7H57.87v-8h1.45v3h.87l2.59-3h1.57l-3,3.68,3.19,4.32H62.94l-2.79-3.7Z"/><path class="cls-2" d="M71.32,60.92h1.83v8H71.69V62.63l-4,6.29H65.87v-8h1.45V67.2Z"/></g></g></g></svg>