<svg xmlns="http://www.w3.org/2000/svg" xmlns:xlink="http://www.w3.org/1999/xlink" viewBox="0 0 101 101"><defs><style>.cls-1{fill:url(#Безымянный_градиент_14);}.cls-2{fill:#fff;}</style><linearGradient id="Безымянный_градиент_14" y1="50.5" x2="101" y2="50.5" gradientUnits="userSpaceOnUse"><stop offset="0" stop-color="#3e30ff"/><stop offset="0.06" stop-color="#3e30ff"/><stop offset="1" stop-color="#4d78ff"/></linearGradient></defs><title>6.1</title><g id="Layer_2" data-name="Layer 2"><g id="Слой_1" data-name="Слой 1"><g id="_6.1" data-name="6.1"><circle class="cls-1" cx="50.5" cy="50.5" r="50.5"/><path class="cls-2" d="M22.93,57.72h-2V46.2L14.29,57.72H11.47v-14h2V55.24l6.64-11.52h2.82Z"/><path class="cls-2" d="M25.85,57.72v-10h9.32v10H33.35V49.36H27.67v8.36Z"/><path class="cls-2" d="M46.51,49a5.34,5.34,0,0,1,0,7.42,5.35,5.35,0,0,1-3.92,1.5,5.17,5.17,0,0,1-3.82-1.5,5.31,5.31,0,0,1,0-7.4,5.17,5.17,0,0,1,3.82-1.5A5.38,5.38,0,0,1,46.51,49Zm-1.32,6.24a3.49,3.49,0,0,0,1-2.52,3.55,3.55,0,0,0-1-2.54,3.55,3.55,0,0,0-6.1,2.54,3.58,3.58,0,0,0,6.1,2.52Z"/><path class="cls-2" d="M48.67,47.72H58l-.66,1.82H54.15v8.18H52.33V49.54H48.67Z"/><path class="cls-2" d="M67.49,49a5,5,0,0,1,1.5,3.7c0,.16,0,.34,0,.56H60.21a3.37,3.37,0,0,0,1.12,2.28,4,4,0,0,0,2.74.9,5.29,5.29,0,0,0,3.16-1l.5,1.36A6.37,6.37,0,0,1,64,57.92a5.68,5.68,0,0,1-4.16-1.48A5.42,5.42,0,0,1,59.91,49a5.54,5.54,0,0,1,7.58,0Zm-.32,3.14a3.53,3.53,0,0,0-1.1-2.28,3.41,3.41,0,0,0-2.38-.9,3.37,3.37,0,0,0-2.38.9,3.49,3.49,0,0,0-1.1,2.28Z"/><path class="cls-2" d="M72.89,53.1v4.62H71.07v-10h1.82v3.82H74l3.24-3.82h2l-3.78,4.6,4,5.4h-2L73.93,53.1Z"/><path class="cls-2" d="M86.81,48.26a4.63,4.63,0,0,1,1.68,1.92V47.72h1.82v10H88.49V55.26a4.78,4.78,0,0,1-7.74,1.18,6,6,0,0,1,0-7.44,4.43,4.43,0,0,1,3.46-1.48A4.69,4.69,0,0,1,86.81,48.26Zm.64,7a3.6,3.6,0,0,0-2.58-6.16,3.55,3.55,0,0,0-3.6,3.6,3.62,3.62,0,0,0,6.18,2.56Z"/></g></g></g></svg>