<svg xmlns="http://www.w3.org/2000/svg" xmlns:xlink="http://www.w3.org/1999/xlink" viewBox="0 0 101 101"><defs><style>.cls-1{fill:url(#Безымянный_градиент_14);}.cls-2{fill:#fff;}</style><linearGradient id="Безымянный_градиент_14" y1="50.5" x2="101" y2="50.5" gradientUnits="userSpaceOnUse"><stop offset="0" stop-color="#3e30ff"/><stop offset="0.06" stop-color="#3e30ff"/><stop offset="1" stop-color="#4d78ff"/></linearGradient></defs><title>7.1</title><g id="Layer_2" data-name="Layer 2"><g id="Слой_1" data-name="Слой 1"><g id="_7.1" data-name="7.1"><circle class="cls-1" cx="50.5" cy="50.5" r="50.5"/><path class="cls-2" d="M30.38,57.72h-2v-6.8h-1l-5.28,6.8H19.8L25.64,50,20.3,43.72h2.28l4.76,5.38h1V43.72h2V49.1h1l4.76-5.38h2.28L33.12,50,39,57.72h-2.3l-5.28-6.8h-1Z"/><path class="cls-2" d="M47.36,47.72h2.28v10H47.82V49.86l-5,7.86H40.54v-10h1.82v7.86Z"/><path class="cls-2" d="M59.12,54.9A2.63,2.63,0,0,1,58,57.08a4.69,4.69,0,0,1-2.88.84,7,7,0,0,1-3.58-.9l.5-1.38a4.57,4.57,0,0,0,2.8.9A3,3,0,0,0,56.66,56a1.52,1.52,0,0,0,.64-1.26c0-1.07-.76-1.6-2.26-1.6H54V52H55c1.38,0,2.08-.5,2.08-1.48a1.35,1.35,0,0,0-.6-1.14,2.72,2.72,0,0,0-1.66-.46,4.22,4.22,0,0,0-2.5.68l-.5-1.36a7.31,7.31,0,0,1,3.28-.68,4.54,4.54,0,0,1,2.74.76,2.45,2.45,0,0,1,1.06,2.06,2.15,2.15,0,0,1-1.78,2.2A2.28,2.28,0,0,1,59.12,54.9Z"/><path class="cls-2" d="M68.34,51.5V47.72h1.82v10H68.34V53.16H62.88v4.56H61.06v-10h1.82V51.5Z"/><path class="cls-2" d="M78.06,50.9a3.32,3.32,0,0,1,3.42,3.4,3.32,3.32,0,0,1-3.42,3.42H72.88v-10H74.7V50.9Zm-.38,5.26A2,2,0,0,0,79,55.68a1.72,1.72,0,0,0,.64-1.38A1.75,1.75,0,0,0,79,52.92a2.06,2.06,0,0,0-1.34-.48h-3v3.72Z"/></g></g></g></svg>