<svg xmlns="http://www.w3.org/2000/svg" xmlns:xlink="http://www.w3.org/1999/xlink" viewBox="0 0 101 101"><defs><style>.cls-1{fill:url(#Безымянный_градиент_14);}.cls-2{fill:#fff;}</style><linearGradient id="Безымянный_градиент_14" y1="50.5" x2="101" y2="50.5" gradientUnits="userSpaceOnUse"><stop offset="0" stop-color="#3e30ff"/><stop offset="0.06" stop-color="#3e30ff"/><stop offset="1" stop-color="#4d78ff"/></linearGradient></defs><title>8.1</title><g id="Layer_2" data-name="Layer 2"><g id="Слой_1" data-name="Слой 1"><g id="_8.1" data-name="8.1"><circle class="cls-1" cx="50.5" cy="50.5" r="50.5"/><path class="cls-2" d="M24.14,45.58a7.21,7.21,0,0,1,5.26-2.06,7.24,7.24,0,0,1,5.26,2.06,7.27,7.27,0,0,1,0,10.26,7.26,7.26,0,0,1-5.26,2.08,7.22,7.22,0,0,1-5.26-2.08,7.27,7.27,0,0,1,0-10.26Zm9.08,9a5.16,5.16,0,0,0,1.56-3.82,5.42,5.42,0,0,0-9.2-3.84A5.22,5.22,0,0,0,24,50.72,5.33,5.33,0,0,0,29.4,56.1,5.21,5.21,0,0,0,33.22,54.54Z"/><path class="cls-2" d="M39.92,56.42a5.31,5.31,0,0,1,0-7.4,5.26,5.26,0,0,1,3.86-1.5,5.86,5.86,0,0,1,3,.8l-.54,1.52a4.37,4.37,0,0,0-2.36-.68,3.6,3.6,0,0,0-2.64,1,3.44,3.44,0,0,0-1,2.54,3.39,3.39,0,0,0,1,2.52,3.58,3.58,0,0,0,2.64,1,4.44,4.44,0,0,0,2.28-.62l.56,1.52a6.27,6.27,0,0,1-3,.74A5.2,5.2,0,0,1,39.92,56.42Z"/><path class="cls-2" d="M55.22,48.26a4.63,4.63,0,0,1,1.68,1.92V47.72h1.82v10H56.9V55.26a4.78,4.78,0,0,1-7.74,1.18,6,6,0,0,1,0-7.44,4.43,4.43,0,0,1,3.46-1.48A4.69,4.69,0,0,1,55.22,48.26Zm.64,7a3.6,3.6,0,0,0-2.58-6.16,3.55,3.55,0,0,0-3.6,3.6,3.62,3.62,0,0,0,6.18,2.56Z"/><path class="cls-2" d="M61.44,57.72v-10H68.6L68,49.36H63.26v8.36Z"/><path class="cls-2" d="M78.2,49a5.34,5.34,0,0,1,0,7.42,5.35,5.35,0,0,1-3.92,1.5,5.17,5.17,0,0,1-3.82-1.5,5.31,5.31,0,0,1,0-7.4,5.17,5.17,0,0,1,3.82-1.5A5.38,5.38,0,0,1,78.2,49Zm-1.32,6.24a3.49,3.49,0,0,0,1-2.52,3.55,3.55,0,0,0-1-2.54,3.55,3.55,0,0,0-6.1,2.54,3.58,3.58,0,0,0,6.1,2.52Z"/></g></g></g></svg>