<svg xmlns="http://www.w3.org/2000/svg" xmlns:xlink="http://www.w3.org/1999/xlink" viewBox="0 0 101 101"><defs><style>.cls-1{fill:url(#Безымянный_градиент_14);}.cls-2{fill:#fff;}</style><linearGradient id="Безымянный_градиент_14" y1="50.5" x2="101" y2="50.5" gradientUnits="userSpaceOnUse"><stop offset="0" stop-color="#3e30ff"/><stop offset="0.06" stop-color="#3e30ff"/><stop offset="1" stop-color="#4d78ff"/></linearGradient></defs><title>9.1</title><g id="Layer_2" data-name="Layer 2"><g id="Слой_1" data-name="Слой 1"><g id="_9.1" data-name="9.1"><circle class="cls-1" cx="50.5" cy="50.5" r="50.5"/><path class="cls-2" d="M33.19,57.72,28,50.92h-1v6.8h-2v-14h2V49.1h1l4.8-5.38H35l-5.36,6.2,5.86,7.8Z"/><path class="cls-2" d="M42.71,48.26a4.63,4.63,0,0,1,1.68,1.92V47.72h1.82v10H44.39V55.26a4.78,4.78,0,0,1-7.74,1.18,6,6,0,0,1,0-7.44,4.43,4.43,0,0,1,3.46-1.48A4.69,4.69,0,0,1,42.71,48.26Zm.64,7a3.6,3.6,0,0,0-2.58-6.16,3.55,3.55,0,0,0-3.6,3.6,3.62,3.62,0,0,0,6.18,2.56Z"/><path class="cls-2" d="M49.81,56.42a5.31,5.31,0,0,1,0-7.4,5.26,5.26,0,0,1,3.86-1.5,5.86,5.86,0,0,1,3,.8l-.54,1.52a4.37,4.37,0,0,0-2.36-.68,3.6,3.6,0,0,0-2.64,1,3.44,3.44,0,0,0-1,2.54,3.39,3.39,0,0,0,1,2.52,3.58,3.58,0,0,0,2.64,1,4.44,4.44,0,0,0,2.28-.62l.56,1.52a6.27,6.27,0,0,1-3,.74A5.2,5.2,0,0,1,49.81,56.42Z"/><path class="cls-2" d="M60.19,53.1v4.62H58.37v-10h1.82v3.82h1.08l3.24-3.82h2l-3.78,4.6,4,5.4h-2L61.23,53.1Z"/><path class="cls-2" d="M76,49a5.34,5.34,0,0,1,0,7.42,5.35,5.35,0,0,1-3.92,1.5,5.17,5.17,0,0,1-3.82-1.5,5.31,5.31,0,0,1,0-7.4,5.17,5.17,0,0,1,3.82-1.5A5.38,5.38,0,0,1,76,49Zm-1.32,6.24a3.49,3.49,0,0,0,1-2.52,3.55,3.55,0,0,0-1-2.54,3.55,3.55,0,0,0-6.1,2.54,3.58,3.58,0,0,0,6.1,2.52Z"/></g></g></g></svg>